Coordinates
version=1
nRows=27
nColumns=12
inDegrees=yes

Units are S.I. units (second, meters, Newtons, ...)
Angles are in degrees

endheader
time	SC_y	SC_z	SC_x	AC_y	AC_z	AC_x	GH_y	GH_z	GH_yy	EL_x	PS_y
       0.0              -23.99          32.29          20.92          48.46         -10.93         0.7991         -178.0         -17.05          121.2          19.66          118.2
   0.04955              -23.99          32.29          20.93          48.46         -10.92         0.7986         -178.0         -17.04          121.1          19.67          118.2
   0.09911              -23.99          32.29          20.94          48.47         -10.92         0.7982         -178.0         -17.04          121.1          19.68          118.2
    0.1487              -23.99          32.29          20.95          48.47         -10.92         0.7977         -177.9         -17.03          121.1          19.69          118.2
    0.1982              -23.99          32.29          20.96          48.47         -10.92         0.7972         -177.9         -17.03          121.0          19.71          118.2
    0.2478              -23.99          32.29          20.97          48.47         -10.92         0.7966         -177.8         -17.02          121.0          19.72          118.1
    0.2973              -23.99          32.29          20.98          48.47         -10.92         0.7961         -177.8         -17.01          121.0          19.74          118.1
    0.3469              -23.99          32.29          20.99          48.47         -10.91         0.7954         -177.7          -17.0          120.9          19.75          118.1
    0.3964              -23.99          32.29          21.01          48.48         -10.91         0.7948         -177.7          -17.0          120.9          19.77          118.1
     0.446              -23.99          32.29          21.02          48.48         -10.91          0.794         -177.6         -16.99          120.8          19.79          118.1
    0.4955              -23.99          32.29          21.04          48.48         -10.91         0.7933         -177.6         -16.98          120.8          19.81          118.1
    0.5451              -23.99           32.3          21.05          48.48          -10.9         0.7924         -177.5         -16.97          120.7          19.83          118.1
    0.5946              -23.99           32.3          21.07          48.49          -10.9         0.7915         -177.4         -16.96          120.7          19.86          118.1
    0.6442              -23.99           32.3          21.09          48.49          -10.9         0.7906         -177.3         -16.94          120.6          19.88          118.1
    0.6938              -23.99           32.3          21.11          48.49         -10.89         0.7895         -177.3         -16.93          120.5          19.91          118.0
    0.7433              -23.99           32.3          21.13           48.5         -10.89         0.7884         -177.2         -16.92          120.5          19.94          118.0
    0.7929              -23.99           32.3          21.16           48.5         -10.89         0.7872         -177.1          -16.9          120.4          19.97          118.0
    0.8424              -23.99           32.3          21.19           48.5         -10.88         0.7858         -177.0         -16.88          120.3          20.01          118.0
     0.892              -23.99          32.31          21.21          48.51         -10.88         0.7843         -176.8         -16.87          120.2          20.05          117.9
    0.9415               -24.0          32.31          21.25          48.51         -10.87         0.7827         -176.7         -16.85          120.1          20.09          117.9
    0.9911               -24.0          32.31          21.28          48.52         -10.87          0.781         -176.6         -16.82          120.0          20.14          117.9
     1.041               -24.0          32.31          21.32          48.53         -10.86          0.779         -176.4          -16.8          119.9          20.19          117.9
      1.09               -24.0          32.32          21.36          48.53         -10.85         0.7769         -176.2         -16.77          119.7          20.25          117.8
      1.14               -24.0          32.32          21.41          48.54         -10.84         0.7745         -176.0         -16.74          119.6          20.31          117.8
     1.189               -24.0          32.32          21.46          48.55         -10.84         0.7719         -175.8         -16.71          119.4          20.38          117.7
     1.239               -24.0          32.33          21.52          48.56         -10.83         0.7689         -175.6         -16.67          119.2          20.46          117.7
     1.288               -24.0          32.33          21.59          48.57         -10.82         0.7656         -175.3         -16.63          119.0          20.55          117.6
